<svg width="48" height="48" viewBox="0 0 48 48" fill="none" xmlns="http://www.w3.org/2000/svg">
  <path d="M17.2192 13.9958H24.7783" stroke="#2E1066" stroke-width="2" stroke-linecap="round" stroke-linejoin="round" />
  <path d="M17.2192 13.9958H24.7783" stroke="#410F9E" stroke-width="2" stroke-linecap="round" stroke-linejoin="round" />
  <path d="M17.2192 13.9958H24.7783" stroke="#453888" stroke-width="2" stroke-linecap="round" stroke-linejoin="round" />
  <path d="M17.2192 13.9958H24.7783" stroke="#5946D7" stroke-width="2" stroke-linecap="round" stroke-linejoin="round" />
  <path d="M17.2192 13.9958H24.7783" stroke="#6B59CC" stroke-width="2" stroke-linecap="round" stroke-linejoin="round" />
  <path d="M17.9975 24H11.995V38.0058" stroke="#2E1066" stroke-width="2" stroke-linecap="round" stroke-linejoin="round" />
  <path d="M17.9975 24H11.995V38.0058" stroke="#410F9E" stroke-width="2" stroke-linecap="round" stroke-linejoin="round" />
  <path d="M17.9975 24H11.995V38.0058" stroke="#453888" stroke-width="2" stroke-linecap="round" stroke-linejoin="round" />
  <path d="M17.9975 24H11.995V38.0058" stroke="#5946D7" stroke-width="2" stroke-linecap="round" stroke-linejoin="round" />
  <path d="M17.9975 24H11.995V38.0058" stroke="#6B59CC" stroke-width="2" stroke-linecap="round" stroke-linejoin="round" />
  <path d="M11.995 38.0058H3.99167V15.1203C3.99167 13.7476 4.73617 12.4829 5.93648 11.8169L19.164 4.46788C20.3056 3.83352 21.6939 3.83352 22.8355 4.46788L36.063 11.8169C37.2623 12.4838 38.0058 13.7482 38.0058 15.1203V17.9975" stroke="#2E1066" stroke-width="2" stroke-linecap="round" stroke-linejoin="round" />
  <path d="M11.995 38.0058H3.99167V15.1203C3.99167 13.7476 4.73617 12.4829 5.93648 11.8169L19.164 4.46788C20.3056 3.83352 21.6939 3.83352 22.8355 4.46788L36.063 11.8169C37.2623 12.4838 38.0058 13.7482 38.0058 15.1203V17.9975" stroke="#410F9E" stroke-width="2" stroke-linecap="round" stroke-linejoin="round" />
  <path d="M11.995 38.0058H3.99167V15.1203C3.99167 13.7476 4.73617 12.4829 5.93648 11.8169L19.164 4.46788C20.3056 3.83352 21.6939 3.83352 22.8355 4.46788L36.063 11.8169C37.2623 12.4838 38.0058 13.7482 38.0058 15.1203V17.9975" stroke="#453888" stroke-width="2" stroke-linecap="round" stroke-linejoin="round" />
  <path d="M11.995 38.0058H3.99167V15.1203C3.99167 13.7476 4.73617 12.4829 5.93648 11.8169L19.164 4.46788C20.3056 3.83352 21.6939 3.83352 22.8355 4.46788L36.063 11.8169C37.2623 12.4838 38.0058 13.7482 38.0058 15.1203V17.9975" stroke="#5946D7" stroke-width="2" stroke-linecap="round" stroke-linejoin="round" />
  <path d="M11.995 38.0058H3.99167V15.1203C3.99167 13.7476 4.73617 12.4829 5.93648 11.8169L19.164 4.46788C20.3056 3.83352 21.6939 3.83352 22.8355 4.46788L36.063 11.8169C37.2623 12.4838 38.0058 13.7482 38.0058 15.1203V17.9975" stroke="#6B59CC" stroke-width="2" stroke-linecap="round" stroke-linejoin="round" />
  <path d="M44.0084 35.6048C44.0084 33.3948 42.2167 31.6032 40.0067 31.6032H24C21.79 31.6032 19.9984 33.3948 19.9984 35.6048" stroke="#2E1066" stroke-width="2" stroke-linecap="round" stroke-linejoin="round" />
  <path d="M44.0084 35.6048C44.0084 33.3948 42.2167 31.6032 40.0067 31.6032H24C21.79 31.6032 19.9984 33.3948 19.9984 35.6048" stroke="#410F9E" stroke-width="2" stroke-linecap="round" stroke-linejoin="round" />
  <path d="M44.0084 35.6048C44.0084 33.3948 42.2167 31.6032 40.0067 31.6032H24C21.79 31.6032 19.9984 33.3948 19.9984 35.6048" stroke="#453888" stroke-width="2" stroke-linecap="round" stroke-linejoin="round" />
  <path d="M44.0084 35.6048C44.0084 33.3948 42.2167 31.6032 40.0067 31.6032H24C21.79 31.6032 19.9984 33.3948 19.9984 35.6048" stroke="#5946D7" stroke-width="2" stroke-linecap="round" stroke-linejoin="round" />
  <path d="M44.0084 35.6048C44.0084 33.3948 42.2167 31.6032 40.0067 31.6032H24C21.79 31.6032 19.9984 33.3948 19.9984 35.6048" stroke="#6B59CC" stroke-width="2" stroke-linecap="round" stroke-linejoin="round" />
  <path d="M19.9984 35.6048V42.0075C19.9984 43.1125 20.8942 44.0083 21.9992 44.0083H23.98C25.085 44.0083 25.9808 43.1125 25.9808 42.0075V40.685H38.0259V42.0075C38.0259 43.1125 38.9217 44.0083 40.0267 44.0083H42.0075C43.1125 44.0083 44.0084 43.1125 44.0084 42.0075V35.6048" stroke="#2E1066" stroke-width="2" stroke-linecap="round" stroke-linejoin="round" />
  <path d="M19.9984 35.6048V42.0075C19.9984 43.1125 20.8942 44.0083 21.9992 44.0083H23.98C25.085 44.0083 25.9808 43.1125 25.9808 42.0075V40.685H38.0259V42.0075C38.0259 43.1125 38.9217 44.0083 40.0267 44.0083H42.0075C43.1125 44.0083 44.0084 43.1125 44.0084 42.0075V35.6048" stroke="#410F9E" stroke-width="2" stroke-linecap="round" stroke-linejoin="round" />
  <path d="M19.9984 35.6048V42.0075C19.9984 43.1125 20.8942 44.0083 21.9992 44.0083H23.98C25.085 44.0083 25.9808 43.1125 25.9808 42.0075V40.685H38.0259V42.0075C38.0259 43.1125 38.9217 44.0083 40.0267 44.0083H42.0075C43.1125 44.0083 44.0084 43.1125 44.0084 42.0075V35.6048" stroke="#453888" stroke-width="2" stroke-linecap="round" stroke-linejoin="round" />
  <path d="M19.9984 35.6048V42.0075C19.9984 43.1125 20.8942 44.0083 21.9992 44.0083H23.98C25.085 44.0083 25.9808 43.1125 25.9808 42.0075V40.685H38.0259V42.0075C38.0259 43.1125 38.9217 44.0083 40.0267 44.0083H42.0075C43.1125 44.0083 44.0084 43.1125 44.0084 42.0075V35.6048" stroke="#5946D7" stroke-width="2" stroke-linecap="round" stroke-linejoin="round" />
  <path d="M19.9984 35.6048V42.0075C19.9984 43.1125 20.8942 44.0083 21.9992 44.0083H23.98C25.085 44.0083 25.9808 43.1125 25.9808 42.0075V40.685H38.0259V42.0075C38.0259 43.1125 38.9217 44.0083 40.0267 44.0083H42.0075C43.1125 44.0083 44.0084 43.1125 44.0084 42.0075V35.6048" stroke="#6B59CC" stroke-width="2" stroke-linecap="round" stroke-linejoin="round" />
  <path d="M27.4754 36.2051H24.4842" stroke="#2E1066" stroke-width="2" stroke-linecap="round" stroke-linejoin="round" />
  <path d="M27.4754 36.2051H24.4842" stroke="#410F9E" stroke-width="2" stroke-linecap="round" stroke-linejoin="round" />
  <path d="M27.4754 36.2051H24.4842" stroke="#453888" stroke-width="2" stroke-linecap="round" stroke-linejoin="round" />
  <path d="M27.4754 36.2051H24.4842" stroke="#5946D7" stroke-width="2" stroke-linecap="round" stroke-linejoin="round" />
  <path d="M27.4754 36.2051H24.4842" stroke="#6B59CC" stroke-width="2" stroke-linecap="round" stroke-linejoin="round" />
  <path d="M39.5225 36.2051H36.5312" stroke="#2E1066" stroke-width="2" stroke-linecap="round" stroke-linejoin="round" />
  <path d="M39.5225 36.2051H36.5312" stroke="#410F9E" stroke-width="2" stroke-linecap="round" stroke-linejoin="round" />
  <path d="M39.5225 36.2051H36.5312" stroke="#453888" stroke-width="2" stroke-linecap="round" stroke-linejoin="round" />
  <path d="M39.5225 36.2051H36.5312" stroke="#5946D7" stroke-width="2" stroke-linecap="round" stroke-linejoin="round" />
  <path d="M39.5225 36.2051H36.5312" stroke="#6B59CC" stroke-width="2" stroke-linecap="round" stroke-linejoin="round" />
  <path d="M41.0171 31.4771L44.0083 29.9825" stroke="#2E1066" stroke-width="2" stroke-linecap="round" stroke-linejoin="round" />
  <path d="M41.0171 31.4771L44.0083 29.9825" stroke="#410F9E" stroke-width="2" stroke-linecap="round" stroke-linejoin="round" />
  <path d="M41.0171 31.4771L44.0083 29.9825" stroke="#453888" stroke-width="2" stroke-linecap="round" stroke-linejoin="round" />
  <path d="M41.0171 31.4771L44.0083 29.9825" stroke="#5946D7" stroke-width="2" stroke-linecap="round" stroke-linejoin="round" />
  <path d="M41.0171 31.4771L44.0083 29.9825" stroke="#6B59CC" stroke-width="2" stroke-linecap="round" stroke-linejoin="round" />
  <path d="M22.9996 31.4771L19.9984 29.9825" stroke="#2E1066" stroke-width="2" stroke-linecap="round" stroke-linejoin="round" />
  <path d="M22.9996 31.4771L19.9984 29.9825" stroke="#410F9E" stroke-width="2" stroke-linecap="round" stroke-linejoin="round" />
  <path d="M22.9996 31.4771L19.9984 29.9825" stroke="#453888" stroke-width="2" stroke-linecap="round" stroke-linejoin="round" />
  <path d="M22.9996 31.4771L19.9984 29.9825" stroke="#5946D7" stroke-width="2" stroke-linecap="round" stroke-linejoin="round" />
  <path d="M22.9996 31.4771L19.9984 29.9825" stroke="#6B59CC" stroke-width="2" stroke-linecap="round" stroke-linejoin="round" />
  <path d="M27.1373 24C25.7485 24.0035 24.5435 24.9594 24.2241 26.311L22.9556 31.7332L24.2241 26.311C24.5435 24.9594 25.7485 24.0035 27.1373 24H36.8694C38.2582 24.0035 39.4632 24.9594 39.7826 26.311L41.0511 31.7332" stroke="#2E1066" stroke-width="2" stroke-linecap="round" stroke-linejoin="round" />
  <path d="M27.1373 24C25.7485 24.0035 24.5435 24.9594 24.2241 26.311L22.9556 31.7332L24.2241 26.311C24.5435 24.9594 25.7485 24.0035 27.1373 24H36.8694C38.2582 24.0035 39.4632 24.9594 39.7826 26.311L41.0511 31.7332" stroke="#410F9E" stroke-width="2" stroke-linecap="round" stroke-linejoin="round" />
  <path d="M27.1373 24C25.7485 24.0035 24.5435 24.9594 24.2241 26.311L22.9556 31.7332L24.2241 26.311C24.5435 24.9594 25.7485 24.0035 27.1373 24H36.8694C38.2582 24.0035 39.4632 24.9594 39.7826 26.311L41.0511 31.7332" stroke="#453888" stroke-width="2" stroke-linecap="round" stroke-linejoin="round" />
  <path d="M27.1373 24C25.7485 24.0035 24.5435 24.9594 24.2241 26.311L22.9556 31.7332L24.2241 26.311C24.5435 24.9594 25.7485 24.0035 27.1373 24H36.8694C38.2582 24.0035 39.4632 24.9594 39.7826 26.311L41.0511 31.7332" stroke="#5946D7" stroke-width="2" stroke-linecap="round" stroke-linejoin="round" />
  <path d="M27.1373 24C25.7485 24.0035 24.5435 24.9594 24.2241 26.311L22.9556 31.7332L24.2241 26.311C24.5435 24.9594 25.7485 24.0035 27.1373 24H36.8694C38.2582 24.0035 39.4632 24.9594 39.7826 26.311L41.0511 31.7332" stroke="#6B59CC" stroke-width="2" stroke-linecap="round" stroke-linejoin="round" />
</svg>