<svg width="20" height="20" viewBox="0 0 20 20" fill="none" xmlns="http://www.w3.org/2000/svg">
  <path fill-rule="evenodd" clip-rule="evenodd" d="M4.16665 10.8334V10.8334C3.70623 10.8334 3.33331 10.4604 3.33331 10V10C3.33331 9.5396 3.70623 9.16669 4.16665 9.16669V9.16669C4.62706 9.16669 4.99998 9.5396 4.99998 10V10C4.99998 10.4604 4.62706 10.8334 4.16665 10.8334Z" fill="#F4F5F7" stroke="#F4F5F7" stroke-width="1.5" stroke-linecap="round" stroke-linejoin="round" />
  <path fill-rule="evenodd" clip-rule="evenodd" d="M9.99996 10.8334V10.8334C9.53954 10.8334 9.16663 10.4604 9.16663 10V10C9.16663 9.5396 9.53954 9.16669 9.99996 9.16669V9.16669C10.4604 9.16669 10.8333 9.5396 10.8333 10V10C10.8333 10.4604 10.4604 10.8334 9.99996 10.8334Z" fill="#F4F5F7" stroke="#F4F5F7" stroke-width="1.5" stroke-linecap="round" stroke-linejoin="round" />
  <path fill-rule="evenodd" clip-rule="evenodd" d="M15.8333 10.8334V10.8334C15.3729 10.8334 15 10.4604 15 10V10C15 9.5396 15.3729 9.16669 15.8333 9.16669V9.16669C16.2937 9.16669 16.6667 9.5396 16.6667 10V10C16.6667 10.4604 16.2937 10.8334 15.8333 10.8334Z" fill="#F4F5F7" stroke="#F4F5F7" stroke-width="1.5" stroke-linecap="round" stroke-linejoin="round" />
  <path fill-rule="evenodd" clip-rule="evenodd" d="M4.16665 16.6667V16.6667C3.70623 16.6667 3.33331 16.2937 3.33331 15.8333V15.8333C3.33331 15.3729 3.70623 15 4.16665 15V15C4.62706 15 4.99998 15.3729 4.99998 15.8333V15.8333C4.99998 16.2937 4.62706 16.6667 4.16665 16.6667Z" fill="#F4F5F7" stroke="#F4F5F7" stroke-width="1.5" stroke-linecap="round" stroke-linejoin="round" />
  <path fill-rule="evenodd" clip-rule="evenodd" d="M9.99996 16.6667V16.6667C9.53954 16.6667 9.16663 16.2937 9.16663 15.8333V15.8333C9.16663 15.3729 9.53954 15 9.99996 15V15C10.4604 15 10.8333 15.3729 10.8333 15.8333V15.8333C10.8333 16.2937 10.4604 16.6667 9.99996 16.6667Z" fill="#F4F5F7" stroke="#F4F5F7" stroke-width="1.5" stroke-linecap="round" stroke-linejoin="round" />
  <path fill-rule="evenodd" clip-rule="evenodd" d="M15.8333 16.6667V16.6667C15.3729 16.6667 15 16.2937 15 15.8333V15.8333C15 15.3729 15.3729 15 15.8333 15V15C16.2937 15 16.6667 15.3729 16.6667 15.8333V15.8333C16.6667 16.2937 16.2937 16.6667 15.8333 16.6667Z" fill="#F4F5F7" stroke="#F4F5F7" stroke-width="1.5" stroke-linecap="round" stroke-linejoin="round" />
  <path fill-rule="evenodd" clip-rule="evenodd" d="M4.16665 5.00001V5.00001C3.70623 5.00001 3.33331 4.62709 3.33331 4.16668V4.16668C3.33331 3.70626 3.70623 3.33334 4.16665 3.33334V3.33334C4.62706 3.33334 4.99998 3.70626 4.99998 4.16668V4.16668C4.99998 4.62709 4.62706 5.00001 4.16665 5.00001Z" fill="#F4F5F7" stroke="#F4F5F7" stroke-width="1.5" stroke-linecap="round" stroke-linejoin="round" />
  <path fill-rule="evenodd" clip-rule="evenodd" d="M9.99996 5.00001V5.00001C9.53954 5.00001 9.16663 4.62709 9.16663 4.16668V4.16668C9.16663 3.70626 9.53954 3.33334 9.99996 3.33334V3.33334C10.4604 3.33334 10.8333 3.70626 10.8333 4.16668V4.16668C10.8333 4.62709 10.4604 5.00001 9.99996 5.00001Z" fill="#F4F5F7" stroke="#F4F5F7" stroke-width="1.5" stroke-linecap="round" stroke-linejoin="round" />
  <path fill-rule="evenodd" clip-rule="evenodd" d="M15.8333 5.00001V5.00001C15.3729 5.00001 15 4.62709 15 4.16668V4.16668C15 3.70626 15.3729 3.33334 15.8333 3.33334V3.33334C16.2937 3.33334 16.6667 3.70626 16.6667 4.16668V4.16668C16.6667 4.62709 16.2937 5.00001 15.8333 5.00001Z" fill="#F4F5F7" stroke="#F4F5F7" stroke-width="1.5" stroke-linecap="round" stroke-linejoin="round" />
</svg>