<svg width="18" height="18" viewBox="0 0 18 18" fill="none" xmlns="http://www.w3.org/2000/svg">
  <path fill-rule="evenodd" clip-rule="evenodd" d="M0.979538 3.72472C1.22136 2.32081 2.33726 1.28881 3.74563 1.07452C5.09508 0.869192 6.94631 0.666748 8.99999 0.666748C11.0537 0.666748 12.9049 0.869193 14.2543 1.07452C15.6627 1.28881 16.7786 2.32081 17.0204 3.72472C17.189 4.70318 17.3333 5.94612 17.3333 7.33342C17.3333 8.72071 17.189 9.96365 17.0204 10.9421C16.7786 12.346 15.6627 13.378 14.2543 13.5923C13.0198 13.7802 11.3653 13.9656 9.52006 13.9958L4.42393 17.0071C3.86842 17.3354 3.16666 16.935 3.16666 16.2897V13.4534C2.03879 13.0783 1.18712 12.1472 0.979538 10.9421C0.811 9.96365 0.666656 8.72071 0.666656 7.33342C0.666656 5.94613 0.810999 4.70318 0.979538 3.72472ZM3.99999 5.66675C3.99999 5.20651 4.37309 4.83341 4.83332 4.83341H13.1667C13.6269 4.83341 14 5.20651 14 5.66675C14 6.12699 13.6269 6.50008 13.1667 6.50008H4.83332C4.37309 6.50008 3.99999 6.12699 3.99999 5.66675ZM3.99999 9.00008C3.99999 8.53984 4.37309 8.16675 4.83332 8.16675H8.16666C8.62689 8.16675 8.99999 8.53984 8.99999 9.00008C8.99999 9.46032 8.62689 9.83342 8.16666 9.83342H4.83332C4.37309 9.83342 3.99999 9.46032 3.99999 9.00008Z" fill="white" />
</svg>